<svg xmlns="http://www.w3.org/2000/svg" viewBox="0 0 45 31" width="45" height="31">
	<style>
		tspan { white-space:pre }
		.shp0 { fill: #55ab09 } 
	</style>
	<path id="Forma 1" class="shp0" d="M31.72 1L14.28 1C6.95 1 1 6.91 1 14.21L1 16.79C1 24.09 6.95 30 14.28 30L31.72 30C39.05 30 45 24.09 45 16.79L45 14.21C45 6.91 39.05 1 31.72 1ZM30.21 27.48L15.79 27.48C9.15 27.48 3.75 22.1 3.75 15.5C3.75 8.9 9.15 3.52 15.79 3.52L30.21 3.52C36.85 3.52 42.25 8.9 42.25 15.5C42.25 22.1 36.85 27.48 30.21 27.48ZM30.21 9.36L15.79 9.36C12.39 9.36 9.62 12.11 9.62 15.5C9.62 18.89 12.39 21.64 15.79 21.64L30.21 21.64C33.62 21.64 36.38 18.89 36.38 15.5C36.38 12.11 33.62 9.36 30.21 9.36ZM30.21 5.71L15.79 5.71C10.36 5.71 5.95 10.1 5.95 15.5C5.95 20.9 10.36 25.29 15.79 25.29L30.21 25.29C35.64 25.29 40.05 20.9 40.05 15.5C40.05 10.1 35.64 5.71 30.21 5.71ZM30.21 23.83L15.79 23.83C11.17 23.83 7.42 20.09 7.42 15.5C7.42 10.91 11.17 7.17 15.79 7.17L30.21 7.17C34.83 7.17 38.58 10.91 38.58 15.5C38.58 20.09 34.83 23.83 30.21 23.83Z" />
</svg>